<svg width="404" height="61" viewBox="0 0 404 61" fill="none" xmlns="http://www.w3.org/2000/svg"><path d="M313.68 5.29998C313.68 23.37 313.68 41.79 313.68 60.53C308.92 60.53 304.33 60.53 299.15 60.53C299.15 45.34 299.15 30.12 299.15 14.47C295.56 14.47 292.54 14.47 288.87 14.47C288.87 29.89 288.87 45.11 288.87 60.59C283.65 60.59 279.07 60.59 273.78 60.59C273.78 45.2 273.78 30 273.78 14.43C270.03 14.43 266.99 14.43 263.44 14.43C263.44 29.79 263.44 44.87 263.44 60.41C258.24 60.41 253.13 60.41 247.99 60.41C247.86 59.23 248 57.97 247.99 56.7C247.96 42.21 248.2 27.71 247.88 13.23C247.71 5.41998 253.62 0.289982 260.56 0.469982C273.21 0.809982 285.88 0.699986 298.53 0.489987C304.06 0.399986 313.68 0.489986 313.68 5.29998Z" fill="#23A0D7" /><path d="M165.99 30.53C165.99 24.54 165.96 18.54 166 12.55C166.05 5.21998 170.48 0.679975 177.71 0.589975C183.2 0.519975 188.7 0.529981 194.19 0.579981C202.15 0.649981 206.54 4.27999 206.79 12.21C207.18 24.68 207.12 37.19 206.84 49.67C206.68 56.69 201.99 60.72 194.77 60.84C189.11 60.93 183.45 60.93 177.79 60.85C170.47 60.74 166.06 56.32 165.98 49.02C165.91 42.86 165.97 36.7 165.97 30.54C165.97 30.53 165.98 30.53 165.99 30.53ZM181.46 14.64C181.46 25.69 181.46 35.91 181.46 46.39C184.71 46.39 187.72 46.39 190.99 46.39C190.99 35.65 190.99 25.34 190.99 14.64C187.53 14.64 184.65 14.64 181.46 14.64Z" fill="#23A0D7" /><path d="M358.88 60.59C353.61 60.59 349.03 60.59 343.96 60.59C343.96 56.22 343.96 52.13 343.96 47.59C340.41 47.59 337.34 47.59 333.56 47.59C333.56 51.68 333.56 55.88 333.56 60.47C328.14 60.47 323.06 60.47 317.96 60.47C317.86 58.96 318.04 57.52 318.04 56.07C318.02 42.08 318.22 28.08 317.96 14.1C317.81 6.04999 322.4 0.0099832 331.27 0.529983C336.75 0.849983 342.26 0.479991 347.76 0.599991C353.96 0.729991 358.63 4.46999 358.76 10.58C359.1 27.03 358.88 43.5 358.88 60.59ZM343.55 14.5C340.07 14.5 336.9 14.5 333.55 14.5C333.55 21.38 333.55 27.79 333.55 34.59C337 34.59 340.19 34.59 343.55 34.59C343.55 27.68 343.55 21.28 343.55 14.5Z" fill="#23A0D7" /><path d="M161.95 30.57C161.95 36.56 162.02 42.55 161.94 48.54C161.83 56.62 157.64 60.76 149.55 60.85C144.06 60.91 138.57 60.94 133.08 60.84C125.79 60.71 121.34 56.82 121.16 49.56C120.85 36.92 120.86 24.27 121.11 11.63C121.25 4.79003 125.85 0.740017 132.78 0.620017C138.6 0.520017 144.43 0.510028 150.25 0.600028C157.39 0.720028 161.56 4.89003 161.94 12.1C161.96 12.43 161.95 12.77 161.95 13.1C161.94 18.92 161.94 24.74 161.95 30.57ZM136.65 14.31C136.65 25.41 136.65 35.9 136.65 46.56C139.5 46.82 141.96 47.09 144.42 47.24C145.02 47.28 145.64 46.89 146.34 46.68C146.34 35.87 146.34 25.22 146.34 14.31C142.99 14.31 140.08 14.31 136.65 14.31Z" fill="#23A0D7" /><path d="M403.65 60.54C398.56 60.54 393.8 60.54 388.4 60.54C388.4 45.34 388.4 30.12 388.4 14.47C384.74 14.47 381.71 14.47 378.12 14.47C378.12 29.79 378.12 45.01 378.12 60.55C372.98 60.55 368.38 60.55 363.31 60.55C363.31 40.86 363.31 21.16 363.31 1.02C364.38 0.890003 365.64 0.600004 366.89 0.600004C375.05 0.570004 383.21 0.539993 391.38 0.619993C399.55 0.689993 403.87 5.15 403.88 13.39C403.89 27.38 403.9 41.37 403.88 55.37C403.88 56.98 403.74 58.6 403.65 60.54Z" fill="#23A0D7" /><path d="M46.1399 42.66C42.4799 42.66 39.5499 42.66 36.0399 42.66C36.0399 32.06 36.0399 21.66 36.0399 10.92C33.5799 10.92 31.6799 10.92 29.1399 10.92C29.1399 21.41 29.1399 31.8 29.1399 42.52C25.2699 42.52 22.0299 42.52 18.2199 42.52C18.2199 32.12 18.2199 21.71 18.2199 10.98C15.8499 10.62 13.9799 11.31 11.3799 10.92C11.3799 22.03 11.3799 31.61 11.3799 42.5C7.49991 42.5 3.61 42.66 0.179995 42.66C-0.0600045 41.68 0.179909 40.59 0.179909 39.65C0.139909 29.18 0.0899076 18.71 0.209908 8.24002C0.249908 4.33002 3.51991 0.740008 7.45991 0.670008C18.1099 0.470008 28.7699 0.500014 39.4199 0.660014C43.1499 0.720014 46.0299 3.31001 46.0799 6.81001C46.2599 18.59 46.1399 30.37 46.1399 42.66Z" fill="#23A0D7" /><path d="M116.93 46.6C116.93 51.72 116.84 56.32 116.84 60.85C115.51 61.02 114.35 60.84 113.09 60.85C106.77 60.89 100.44 60.92 94.12 60.83C86.64 60.73 82.72 56.88 82.67 49.45C82.59 36.97 82.58 24.49 82.67 12.01C82.72 4.79997 86.95 0.669986 94.21 0.599986C101.65 0.529986 109.09 0.579981 116.84 0.579981C116.84 5.40998 116.84 9.63998 116.84 14.52C110.6 14.52 104.55 14.52 98.18 14.52C98.18 25.41 98.18 35.66 98.18 46.6C104.23 46.6 110.28 46.6 116.93 46.6Z" fill="#23A0D7" /><path d="M244.77 60.81C236.56 60.81 228.74 61.07 220.94 60.72C215.31 60.47 210.93 55.99 210.89 50.77C210.78 34.61 210.89 18.44 210.93 2.28001C210.93 1.97001 211.12 1.66001 211.35 0.950012C215.93 0.950012 220.65 0.950012 225.92 0.950012C225.92 16.24 225.92 31.48 225.92 47.15C232.4 47.15 238.34 47.15 244.77 47.15C244.77 51.76 244.77 55.94 244.77 60.81Z" fill="#23A0D7" /><path d="M77.6701 60.56C51.8001 60.56 26.4001 60.56 0.560059 60.56C0.560059 56.07 0.560059 51.88 0.560059 47.23C26.2401 47.23 51.7601 47.23 77.6701 47.23C77.6701 51.7 77.6701 56.17 77.6701 60.56Z" fill="#23A0D7" /><path d="M69 29.99C69 34.33 69 38.27 69 42.57C65.68 42.57 62.77 42.57 59.24 42.57C59.24 38.54 59.24 34.47 59.24 30.27C57.35 29.67 55.88 29.39 54.6 28.75C52.19 27.54 49.92 26.1 49.93 22.88C49.95 15.74 49.94 8.59998 49.94 1.03998C53.34 1.03998 56.38 1.03998 60.31 1.03998C60.31 3.75998 60.31 6.50998 60.31 9.25998C60.31 12.08 60.31 14.89 60.31 18.13C62.78 18.13 64.98 18.13 67.72 18.13C67.72 12.54 67.72 6.94999 67.72 0.98999C71.28 0.98999 74.33 0.98999 77.94 0.98999C77.94 8.62999 78.31 16.25 77.8 23.81C77.51 28.12 73.44 29.24 69 29.99Z" fill="#23A0D7" /></svg>