<svg id="svg2" xmlns="http://www.w3.org/2000/svg" viewBox="0 0 399.46 169.22"><title>Braun</title><path id="path7" d="M32.32,148.6H20.77V113H32.32c7.91,0,11.57,5.9,11.57,16.46,0,14.5-4.39,19.1-11.57,19.1M20.77,61.44H32c5.82,0,10.53,4.28,10.53,16.07s-5.44,16-10.53,16H20.77ZM51.59,102v-.1c4.57-3.21,11.89-8.74,11.89-26.51,0-23-12-33.34-28.15-33.34H0V168H35.15c19.91,0,29.62-14.77,29.62-36.77,0-20.52-8.06-26.19-13.18-29.31Z" /><path id="path9" d="M103,61.44h11.26c5.82,0,10.51,4.28,10.51,16.07s-5.42,16-10.51,16H103V61.44m42.33,64.41c0-15.71-4.88-20.12-11.51-23.9v-.1c4.58-3.21,11.83-8.74,11.83-26.51,0-23-11.91-33.34-28.09-33.34H82.19V168h20.75l0-55h11.26c5.91,0,10.13,4.9,10.13,16V168h20.93V125.85Z" /><path id="path11" d="M185.77,30.6c0-9.47,8.7-10.7,13.51-10.7s13.48,1.2,13.48,10.7v63h-27V30.6M199.28,0C190.5,0,165,2,165,27.47V168.05H185.8v-55h27v55h20.78V27.47C233.53,1.94,208,0,199.28,0Z" /><path id="path13" d="M295.73,42v99.22c0,5-4.18,8.42-10.38,8.42S275,146.23,275,141.19L275,42l-20.75,0V144.5c0,19.52,20.07,24.72,31.13,24.72s31.11-5.23,31.11-24.74V42H295.72" /><path id="path15" d="M378.7,168V68.84c0-5.05-4.17-8.42-10.37-8.42S358,63.8,358,68.84V168l-20.76,0V65.53c0-19.52,20.07-24.72,31.13-24.72S399.46,46,399.46,65.55V168H378.7" /></svg>