<svg width="794" height="170" viewBox="0 0 794 170" fill="none" xmlns="http://www.w3.org/2000/svg"><path d="M85 0C68.1886 0 51.7547 4.98517 37.7766 14.3251C23.7984 23.665 12.9037 36.9402 6.47028 52.4719C0.0368293 68.0036 -1.64645 85.0943 1.63329 101.583C4.91303 118.071 13.0085 133.217 24.896 145.104C36.7834 156.992 51.929 165.087 68.4174 168.367C84.9057 171.646 101.996 169.963 117.528 163.53C133.06 157.096 146.335 146.202 155.675 132.223C165.015 118.245 170 101.811 170 85C170 62.4566 161.045 40.8365 145.104 24.8959C129.164 8.95532 107.543 0 85 0ZM85.2479 163.802C69.7083 163.806 54.5165 159.201 41.5937 150.571C28.6709 141.94 18.5973 129.672 12.6469 115.317C6.69651 100.961 5.13646 85.1641 8.16402 69.9222C11.1916 54.6803 18.6708 40.6784 29.6559 29.6871C40.641 18.6958 54.6386 11.2088 69.8788 8.17262C85.119 5.13647 100.917 6.68761 115.276 12.6299C129.635 18.5723 141.909 28.6389 150.546 41.5568C159.184 54.4748 163.797 69.664 163.802 85.2036C163.806 95.5218 161.777 105.74 157.831 115.274C153.886 124.808 148.101 133.472 140.808 140.77C133.514 148.069 124.854 153.859 115.323 157.811C105.791 161.763 95.575 163.799 85.2568 163.802H85.2479Z" fill="#1A1919" /><path d="M110.245 111.001H58.9741C53.5321 111.001 49 115.356 49 120.823C49.0569 123.532 50.1263 126.111 51.9808 128.011C53.8353 129.912 56.3285 130.984 58.9304 131H110.245C112.817 130.942 115.269 129.85 117.087 127.954C118.905 126.057 119.949 123.502 120 120.823C119.949 118.176 118.895 115.657 117.067 113.817C115.24 111.977 112.787 110.964 110.245 111.001V111.001Z" fill="#1A1919" /><path d="M125.981 41.1099C123.339 41.1071 120.761 41.9189 118.609 43.432C116.456 44.9451 114.834 47.0842 113.971 49.5509C113.108 52.0176 113.045 54.6889 113.792 57.1924C114.539 59.6959 116.058 61.9068 118.138 63.5166L105.497 89.7578L92.7337 63.7949C94.9366 62.258 96.587 60.0684 97.4461 57.5433C98.3051 55.0181 98.3282 52.2884 97.5119 49.7494C96.6957 47.2104 95.0825 44.9939 92.906 43.4209C90.7294 41.8479 88.1025 41 85.4056 41C82.7086 41 80.0817 41.8479 77.9052 43.4209C75.7286 44.9939 74.1154 47.2104 73.2992 49.7494C72.483 52.2884 72.506 55.0181 73.3651 57.5433C74.2242 60.0684 75.8746 62.258 78.0774 63.7949L65.3753 89.7665L52.5676 63.4297C54.9207 61.5913 56.5386 58.989 57.1341 56.0844C57.7296 53.1798 57.2643 50.1608 55.8207 47.5629C54.3771 44.965 52.0485 42.9561 49.2481 41.8927C46.4477 40.8293 43.3565 40.7801 40.5228 41.7538C37.6891 42.7275 35.2963 44.6612 33.7686 47.2118C32.241 49.7624 31.6774 52.765 32.1778 55.687C32.6783 58.6091 34.2103 61.2615 36.5023 63.1739C38.7942 65.0863 41.6979 66.1349 44.6981 66.1338C45.0238 66.1338 45.3495 66.1338 45.6664 66.0903L65.1993 105L85.3219 66.1077H85.3836L105.225 105L124.863 66.1512C125.224 66.1512 125.585 66.2121 125.955 66.2121C127.651 66.2562 129.34 65.9642 130.921 65.3532C132.501 64.7423 133.942 63.8249 135.158 62.6551C136.374 61.4852 137.34 60.0867 138 58.5419C138.66 56.9972 139 55.3376 139 53.661C139 51.9844 138.66 50.3247 138 48.78C137.34 47.2353 136.374 45.8367 135.158 44.6669C133.942 43.497 132.501 42.5796 130.921 41.9687C129.34 41.3578 127.651 41.0658 125.955 41.1099H125.981Z" fill="#1A1919" /><path d="M191 40H205.901L214.861 97.8972L225.204 40H240.922L251.265 97.8972L260.099 40H275L259.281 132H244.647L233.031 68.2846L221.29 132H206.404L191 40Z" fill="#1A1919" /><path d="M289.816 83.7972C289.816 78.7219 290.439 70.3412 298.85 70.3412C306.265 70.3412 307.277 78.0953 307.277 83.6719V86.0843H289.816V83.7972ZM276.047 98.7413C276.047 124.259 283.056 133 299.614 133C315.517 133 321 121.142 321 111.069V106.542H307.277V108.109C307.277 114.531 306.389 119.826 299.614 119.826C293.461 119.826 290.439 116.803 290.439 106.73V98.0208H321V83.5779C321 70.1219 315.143 59 299.193 59C281.623 59 276 69.6207 276 84.3455L276.047 98.7413Z" fill="#1A1919" /><path d="M395.742 114.313C395.776 117.807 396.499 121.26 397.869 124.476C398.824 127.108 400.273 129.534 402.138 131.625H387.72C385.952 129.313 384.694 126.653 384.03 123.82C382.968 121.017 382.505 118.023 382.669 115.031V72.727H351.863C344.545 72.727 343.169 76.9887 343.044 78.8775C342.403 83.389 345.061 86.152 348.72 89.2897L362.497 96.611C370.441 100.748 373.334 105.899 373.334 114.563C373.334 127.488 362.872 132.999 351.16 132.999C348.113 133.028 345.091 132.451 342.27 131.301C339.449 130.152 336.886 128.453 334.73 126.304C332.574 124.154 330.869 121.598 329.713 118.783C328.558 115.969 327.976 112.953 328.001 109.911V107.663H341.074V108.288C341.074 114.532 344.342 121.463 352.411 121.213C354.002 121.237 355.55 120.694 356.777 119.681C358.004 118.668 358.828 117.252 359.104 115.687C360.667 111.176 356.195 107.413 352.661 105.649L340.448 98.6247C333.724 93.7231 329.361 89.2585 329.361 79.6581C329.361 68.3873 338.744 60.6445 352.927 60.6445H382.638V48H395.335V60.7069H406V72.8207H395.711L395.742 114.313Z" fill="#1A1919" /><path d="M414.053 132V60.7037H427.553V132H414.053ZM420.803 39.0048C422.272 39.0634 423.691 39.5465 424.884 40.3939C426.077 41.2414 426.991 42.4158 427.512 43.7712C428.034 45.1267 428.14 46.6034 427.817 48.0178C427.494 49.4321 426.757 50.7218 425.697 51.7264C424.637 52.7309 423.301 53.4062 421.855 53.6681C420.409 53.9301 418.917 53.7672 417.564 53.1998C416.211 52.6323 415.057 51.6853 414.246 50.4764C413.435 49.2675 413.001 47.8501 413 46.4004C413.004 45.4048 413.21 44.4201 413.607 43.5048C414.005 42.5895 414.585 41.7622 415.313 41.0723C416.041 40.3824 416.902 39.8439 417.845 39.4887C418.788 39.1335 419.794 38.969 420.803 39.0048V39.0048Z" fill="#1A1919" /><path d="M458.246 71.3349C453.862 71.3349 449.862 75.2625 449.862 81.8401V132H437V60.3881H449.308V66.4766C453.031 61.1452 456.662 59 463.154 59C472.631 59 479 67.9909 479 77.1081V132H465.908V81.9663C466 74.7578 462 71.3349 458.246 71.3349Z" fill="#1A1919" /><path d="M497.688 131.642H519.723C522.622 131.642 527.549 132.518 527.549 137.068C527.549 142.227 522.622 142.603 519.723 142.603H497.688V131.642ZM527.168 70.1798C527.851 70.9623 528.687 71.5999 529.627 72.0541C530.566 72.5083 531.589 72.7696 532.634 72.8222C534.495 72.8948 536.311 72.2419 537.689 71.0045C539.068 69.7671 539.897 68.0445 540 66.2085C540.004 65.2554 539.816 64.3111 539.447 63.4306C539.077 62.5501 538.534 61.7511 537.848 61.0801C537.162 60.4091 536.348 59.8797 535.453 59.5226C534.558 59.1656 533.599 58.9881 532.634 59.0006C531.554 59.0121 530.491 59.2684 529.527 59.7498C528.563 60.2312 527.724 60.9248 527.075 61.777C526.426 62.6292 525.984 63.6172 525.783 64.6648C525.582 65.7124 525.628 66.7916 525.917 67.8189C523.002 63.3472 517.822 59.8762 508.492 59.8762C486.013 59.8762 487.042 76.2307 487.042 85.6744C487.042 94.2582 486.139 112.864 508.365 112.864C528.277 112.864 529.418 95.8842 529.418 85.9402C529.45 81.7812 529.45 75.6053 527.168 70.1798ZM487.074 122.37C487.328 127.389 489.466 130.516 496.04 131.752C486.535 133.315 487.074 138.772 487.074 142.337C487.074 149.748 491.367 153 501.886 153H519.723C532.76 153 538.099 145.98 537.972 136.427C537.846 126.873 532.507 120.479 519.517 120.479H497.688V110.347C496.167 110.378 494.669 110.723 493.291 111.359C491.913 111.995 490.685 112.908 489.685 114.041C488.686 115.173 487.937 116.499 487.488 117.933C487.038 119.368 486.897 120.879 487.074 122.37ZM499.589 85.9402C499.589 77.2313 501.379 70.8052 508.27 70.8052C515.161 70.8052 516.682 76.2307 516.682 85.9402C516.682 94.2582 515.288 102.201 508.27 102.201C500.999 102.201 499.589 95.3839 499.589 85.9402V85.9402Z" fill="#1A1919" /><path d="M543 132V40H556.886V66.2292C560.306 61.8498 562.981 58.7194 570.454 58.7194C581.538 58.7194 587 67.3676 587 75.8261V132H573.764V79.6205C573.764 74.8775 571.594 70.7352 566.528 70.7352C559.672 70.7352 556.886 74.9249 556.886 79.6205V132H543Z" fill="#1A1919" /><path d="M625.49 82.67V109.643C625.49 116.422 622.386 120.179 617.062 120.179C611.738 120.179 608.51 116.422 608.51 109.643V82.67C608.51 76.7682 610.14 71.3829 617.062 71.3829C623.984 71.3829 625.49 76.7682 625.49 82.67ZM638 113.275V81.7933C638 64.9958 627.228 59 617.062 59C605.902 59 596 64.9958 596 81.7933V113.275C596 125.58 604.164 133 617.062 133C629.96 133 638 125.58 638 113.275Z" fill="#1A1919" /><path d="M647 60H660.289V109.391C660.289 118.841 663.612 120.778 668.572 120.778C673.531 120.778 676.981 115.849 676.981 108.257V60H690V131.614H677.283V125.566C675.637 127.862 673.461 129.735 670.937 131.028C668.412 132.321 665.611 132.997 662.769 133C651.642 133 647.048 124.684 647.048 110.163L647 60Z" fill="#1A1919" /><path d="M717.99 86.1354L730.248 93.5417C739.075 98.8184 742.238 105.99 741.986 113.271C741.734 126.721 732.64 133 719.753 133C703.514 133 697 119.299 697 108.245V106.867H709.903V107.493C709.903 113.521 713.695 120.442 721.531 120.442C726.833 120.442 733.269 111.047 721.153 104.22L709.226 96.9395C705.983 95.2354 703.286 92.6581 701.444 89.5017C699.602 86.3454 698.689 82.7373 698.81 79.0893C698.81 65.9052 708.974 59 719.69 59C741.294 59 740.79 81.8608 740.79 81.8608H727.652C727.652 81.8608 727.652 73.3115 721.09 71.5578C714.529 69.8041 705.151 78.5883 717.99 86.1354Z" fill="#1A1919" /><path d="M762.833 83.7972C762.833 78.7219 763.471 70.3412 771.873 70.3412C779.28 70.3412 780.276 78.0953 780.276 83.6719V86.0843H762.833V83.7972ZM749.078 98.7413C749.078 124.259 756.08 133 772.62 133C788.507 133 794 121.142 794 111.069V106.542H780.276V108.109C780.276 114.531 779.405 119.826 772.62 119.826C766.396 119.826 763.471 116.803 763.471 106.73V98.0208H793.953V83.5779C793.953 70.1219 788.087 59 772.169 59C754.633 59 749 69.6207 749 84.3455L749.078 98.7413Z" fill="#1A1919" /></svg>