<svg id="Layer_1" data-name="Layer 1" xmlns="http://www.w3.org/2000/svg" viewBox="0 0 535.83 83.11"><defs><style>.cls-1{fill:#231f20;}.cls-2{fill:#ed1c24;}</style></defs><title>Emilia</title><path class="cls-1" d="M293.16,281.59,311.61,283c9.58.69,19.61-1.71,26.87-6.75h.44l-6.54,15H271.8v-.35c7.41-2.06,6.54-10.52,6.54-15.68V232c0-5.26.87-13.61-6.54-15.79v-.34h50.89c2.47,0,4.94.22,6.83-.57H330V228.7h-.43c-4.51-4.12-14.86-4.58-21.55-4.58a103,103,0,0,0-14.81.8v21.3h17.28c2.33,0,4.65,0,6.39-.69h.44v12.13h-.44c-2.32-3.31-8.42-3.2-12.93-3.2H293.16Z" transform="translate(-146.22 -211.66)" /><path class="cls-1" d="M421.22,223.09A19.36,19.36,0,0,0,423,216v-.11h20.56v.34c-2.85.81-3.68,4.12-3.68,6.75l2.34,56.22c.71,5.38,1.31,8.47,6.06,11.67v.36H425.35v-.36c4.16-1.25,4.87-4.69,4.87-8.58L429,227.1l-32.13,65.6c-5.95-4.35-7.61-7.44-10.46-13.85l-28.09-51.64L357,276.44c-.95,7-1.78,12,3.8,14.42v.36H341.44v-.36c5-4.23,5.71-9.84,6.66-16l1.27-48c.47-3.21,1.79-7.79-3.69-10.65v-.34h20.8V216c0,1.83.95,3.55,1.67,5.15L396,271.63Z" transform="translate(-146.22 -211.66)" /><path class="cls-1" d="M461.23,232c0-5.27.93-13.62-5.81-15.8v-.34h25.09v.34c-6.6,2.18-5.81,10.64-5.81,15.8v43.16c0,5.16-.79,13.51,5.81,15.69v.34H455.42v-.34c6.6-2.07,5.81-10.53,5.81-15.69Z" transform="translate(-146.22 -211.66)" /><path class="cls-1" d="M530.53,283a35.66,35.66,0,0,0,23.37-7h.39l-6.85,15.23H493.15v-.34c6.74-2.07,6-10.53,6-15.69V232c0-5.27.79-13.62-6-15.8v-.34h25.23v.34c-6.74,2.18-5.81,10.64-5.81,15.8v49.91Z" transform="translate(-146.22 -211.66)" /><path class="cls-1" d="M561.54,232c0-5.27.92-13.62-5.82-15.8v-.34h25.1v.34C574.21,218.4,575,226.86,575,232v43.16c0,5.16-.8,13.51,5.81,15.69v.34h-25.1v-.34c6.6-2.07,5.82-10.53,5.82-15.69Z" transform="translate(-146.22 -211.66)" /><path class="cls-2" d="M196.41,262.44c6.92,0,13,1.49,16.18,3.72l31.69-28.74L214,251.49l13.2-32.2-25,27.68-5.78-35.31L190.63,247l-25-27.68,13.21,32.2-30.27-14.07,31.69,28.74c3.22-2.23,9.26-3.72,16.18-3.72" transform="translate(-146.22 -211.66)" /><path class="cls-2" d="M196.41,294.77c27.72,0,50.19-19.48,50.19-43.51a38.37,38.37,0,0,0-1.15-9.32l-30.07,27.43a31.51,31.51,0,0,1-37.94,0l-30.07-27.43a38.37,38.37,0,0,0-1.15,9.32c0,24,22.47,43.51,50.19,43.51" transform="translate(-146.22 -211.66)" /><path class="cls-1" d="M668.46,274.61l-28.83-58.73H617.72v.35c6.65,1.7,4,6.52,2.08,10.63l-23.15,47.75c-3.06,6.53-5.42,12.94-13.45,16.25v.35h25.5v-.35c-6.65-2.05-5.68-5.37-2.77-11.78l7.21-16.15h35l7.48,16.15c3.74,8,4.85,9.27-1.94,11.78v.35h28.42v-.35C674.15,287.55,671.66,281.14,668.46,274.61Zm-51.71-20.15,13.73-28.85,13.57,28.85Z" transform="translate(-146.22 -211.66)" /></svg>