<svg fill="none" height="109" viewBox="0 0 577 109" width="577" xmlns="http://www.w3.org/2000/svg" xmlns:xlink="http://www.w3.org/1999/xlink"><clipPath id="a"><path d="m147 1h430v107h-430z" /></clipPath><path d="m33.25.75h-32.25v51.5l54.75 54.75v-84.5z" fill="#c41e2a" stroke="#c41e2a" /><path d="m86.75.75h32.25v51.5l-54.75 54.75v-84.5z" fill="#2391d0" stroke="#2391d0" /><g clip-path="url(#a)" fill="#231f20"><path d="m167.081 1.09277-6.707 50.61513c-.617 4.5694-.832 6.8496-.644 6.8407h30.851l-1.502 11.0842h-30.851c-8.88 0-12.52-5.975-10.919-17.9249l6.707-50.61513z" /><path d="m219.554 1.18726-9.014 68.62034h-12.743l9.081-68.62034z" /><path d="m280.17 12.2715h-33.534c-.872 0-1.341.763-1.583 2.3025l-2.079 15.5152h26.935l-1.489 11.1779h-26.935l-3.796 28.5405h-12.675l7.31-55.2336c1.171-8.92451 6.43-13.38674 15.774-13.38674l33.534.73627z" /><path d="m337.97 12.2715h-33.534c-.859 0-1.342.763-1.57 2.3025l-2.133 15.7026h26.935l-1.341 10.4416h-26.989l-2.039 15.8901c-.187 1.4725.148 2.2088 1.02 2.2088h33.413l-1.341 10.2542-33.534.7363c-9.372 0-13.472-4.3998-12.3-13.1993l5.553-42.0343c1.234-8.92451 6.51-13.38674 15.828-13.38674l33.534.73627z" /><path d="m390.403 2.20465-1.341 10.25425-20.55-.1874c-7.288 0-11.115 1.3386-11.482 4.016l-.831 6.6933c-.054 2.3472 2.325 4.1945 7.136 5.5421l8.236 2.5837c11.106 2.954 16.132 8.5898 15.077 16.9074l-.738 5.4484c-1.351 10.8968-9.434 16.3452-24.252 16.3452l-23.407-.9237 1.342-10.3346 22.95.2678c6.358 0 9.815-1.7849 10.369-5.3547l.738-5.4484c.308-2.5301-2.12-4.5515-7.311-6.091l-9.523-3.2396c-9.444-2.945-13.937-8.1168-13.481-15.5152l.926-6.8406c1.323-10.09355 9.917-15.14034 25.78-15.14034z" /><path d="m395.031 69.6337 9.068-68.53995h30.086c13.512 0 19.325 7.08157 17.438 21.24475-1.887 14.1631-9.582 21.2447-23.085 21.2447h-17.437l-3.381 26.0505zm33.038-36.6796c6.358 0 10.002-3.5698 10.932-10.7093.93-7.1396-2.035-10.6514-8.893-10.5354h-14.755l-2.777 21.2447z" /><path d="m492.87 69.8076-3.528-15.609h-26.747l-7.672 15.609h-12.69l29.349-63.26566c1.664-3.56979 4.127-5.35468 7.391-5.35468h7.968c3.273 0 5.249 1.78489 5.929 5.35468l12.676 63.26566zm-5.647-26.6932-5.366-27.7105h-1.194l-12.957 27.7105z" /><path d="m513.688 69.6337 8.611-64.75152c.304-2.57918 2.03-3.87323 5.178-3.88215h12.77c1.092-.097919 2.183.20388 3.069.84916s1.507 1.59001 1.746 2.65816l10.651 54.04215h1.193l7.405-57.36206h12.689l-8.705 64.84526c-.305 2.3917-1.999 3.5921-5.084 3.601h-12.596c-1.189.053-2.358-.324-3.292-1.0616-.934-.7377-1.57-1.7866-1.791-2.9544l-10.557-50.8695h-1.341l-7.23 54.8855z" /><path d="m409.33 83.1142h-13.923c-.778 0-1.226.4463-1.342 1.3387l-.966 7.1084h11.63l-.51 4.016h-11.629l-1.637 12.3427h-4.279l3.112-23.4403c.474-3.5698 2.522-5.3547 6.144-5.3547l13.896.3079z" /><path d="m420.409 79.0981-3.809 28.8349h-4.279l3.81-28.8349z" /><path d="m447.143 79.0981-.523 4.0161h-8.209l-3.273 24.8728h-4.346l3.232-24.8728h-8.866l.55-4.0161z" /><path d="m471.408 79.0981-.536 4.0161h-8.156l-3.273 24.8728h-4.359l3.219-24.8728h-8.84l.55-4.0161z" /><path d="m472.575 107.893 3.662-27.5634c.094-.8567.63-1.3386 1.596-1.3386h5.513c.362-.0227.72.0871 1.006.309.287.2218.482.5403.55.8958l4.641 23.6942h1.596l3.22-24.7919h4.279l-3.729 27.6299c-.108.777-.617 1.165-1.516 1.165h-5.446c-.401.002-.79-.138-1.097-.395-.307-.258-.513-.616-.58-1.011l-4.587-22.3154h-1.677l-3.152 23.7214z" /><path d="m523.842 83.1141h-13.923c-.778 0-1.221.4685-1.342 1.3387l-.979 7.1753h11.63l-.47 3.6947h-11.63l-.965 7.2552c-.134.893.187 1.339.965 1.339h13.857l-.47 3.641-13.883.308c-3.63 0-5.213-1.785-4.748-5.355l2.414-17.9913c.456-3.5698 2.504-5.3547 6.144-5.3547l13.883.3079z" /><path d="m546.296 79.5533-.416 3.6412-8.303-.0803c-3.554 0-5.365.7228-5.606 2.1418l-.389 2.9049c0 1.1915 1.113 2.1151 3.433 2.7577l3.568 1.1245c4.548 1.2182 6.587 3.5341 6.157 6.9611l-.281 2.3288c-.564 4.463-3.841 6.694-9.833 6.694l-9.537-.388.51-3.682 9.296.121c3.138 0 4.855-.911 5.177-2.678l.269-2.3289c.174-1.3387-.98-2.2891-3.461-3.0388l-4.131-1.3386c-3.864-1.245-5.701-3.3735-5.513-6.4123l.389-2.945c.545-4.1588 4.033-6.2383 10.462-6.2383z" /><path d="m569.824 79.5532-.47 3.6411-8.236-.0803c-3.554 0-5.432.7229-5.607 2.1419l-.389 2.9049c0 1.1914 1.114 2.1151 3.421 2.7577l3.581 1.1245c4.534 1.2137 6.582 3.5341 6.144 6.9611l-.269 2.3289c-.572 4.463-3.854 6.694-9.845 6.694l-9.524-.389.496-3.681 9.296.121c3.139 0 4.869-.911 5.178-2.678l.268-2.329c.188-1.3387-.966-2.2891-3.461-3.0388l-4.118-1.3387c-3.863-1.2449-5.7-3.3734-5.526-6.4122l.389-2.9451c.545-4.0963 4.033-6.14 10.463-6.1311z" /></g></svg>