<?xml version="1.0" encoding="utf-8"?><svg version="1.1" id="Layer_1" xmlns="http://www.w3.org/2000/svg" xmlns:xlink="http://www.w3.org/1999/xlink" x="0px" y="0px" viewBox="0 0 133.4 60" style="enable-background:new 0 0 133.4 60;" xml:space="preserve">
<g>
	<g>
		<g>
			<path d="M131.1,44h-5.7V28.3c0-4.2-3.4-7.6-7.6-7.6c-4.2,0-7.6,3.4-7.6,7.6V44h-5.7V28.3c0-7.4,6-13.3,13.3-13.3     s13.3,6,13.3,13.3V44z" />
		</g>
		<path d="M128.3,58.5c0.9,0,1.7-0.3,2.5-1c0.8-0.7,1.1-1.6,1.1-2.7c0-1.1-0.4-2-1.1-2.7c-0.8-0.7-1.6-1.1-2.5-1.1    c-0.9,0-1.7,0.4-2.5,1.1c-0.8,0.7-1.2,1.6-1.2,2.7c0,1.1,0.4,2,1.2,2.7C126.5,58.1,127.4,58.5,128.3,58.5z" />
	</g>
	<path d="M6.4,3.2h5.8v12.5h7.6v5.1h-7.6v23.1H6.4V20.8H1.3v-5.1h5.1V3.2z" />
	<path d="M26.8,4.8c0-1.1,0.4-2,1.2-2.7C28.8,1.4,29.6,1,30.5,1c0.9,0,1.7,0.4,2.5,1.1c0.8,0.7,1.2,1.6,1.2,2.7c0,1.1-0.4,2-1.2,2.7   c-0.8,0.7-1.6,1-2.5,1c-0.9,0-1.8-0.3-2.5-1C27.2,6.8,26.8,5.9,26.8,4.8z M33.3,43.9h-5.8V15.6h5.8V43.9z" />
	<path d="M46.9,3.2h5.8v12.5h7.6v5.1h-7.6v23.1h-5.8V20.8h-5.1v-5.1h5.1V3.2z" />
	<path d="M65.3,30c0-2.1,0.4-4,1.2-5.9c0.8-1.8,1.9-3.4,3.2-4.8c1.4-1.4,2.9-2.5,4.7-3.3c1.8-0.8,3.7-1.2,5.7-1.2   c1.4,0,2.6,0.2,3.7,0.5c1.1,0.3,2.1,0.8,2.9,1.3c0.8,0.5,1.5,1,2,1.6c0.5,0.5,0.8,1,1,1.4l0.3-4h5.6v28.3h-5.8v-3.6   c-0.2,0.4-0.6,0.8-1.1,1.3c-0.5,0.5-1.1,1-1.9,1.4c-0.8,0.4-1.7,0.8-2.8,1.1c-1.1,0.3-2.3,0.5-3.7,0.5c-2.2,0-4.2-0.4-6-1.2   c-1.8-0.8-3.4-1.9-4.7-3.2c-1.3-1.3-2.3-2.9-3.1-4.6C65.6,33.8,65.3,32,65.3,30z M71.1,29.7c0,1.3,0.2,2.5,0.7,3.7   c0.5,1.1,1.1,2.1,1.9,2.9c0.8,0.8,1.8,1.5,2.9,1.9c1.1,0.5,2.4,0.7,3.7,0.7s2.6-0.2,3.8-0.7c1.2-0.5,2.1-1.1,3-2   c0.8-0.8,1.5-1.8,1.9-2.9c0.5-1.1,0.7-2.3,0.7-3.6c0-1.3-0.2-2.5-0.7-3.6c-0.5-1.1-1.1-2.1-1.9-2.9c-0.8-0.8-1.8-1.5-3-1.9   c-1.2-0.5-2.4-0.7-3.8-0.7s-2.6,0.2-3.7,0.7c-1.1,0.5-2.1,1.1-2.9,1.9s-1.5,1.8-1.9,2.9C71.3,27.2,71.1,28.4,71.1,29.7z" />
</g>
</svg>