<svg id="Layer_1" data-name="Layer 1" xmlns="http://www.w3.org/2000/svg" viewBox="0 0 478.9 197.35"><defs><style>.cls-1{fill:#090a0f;}.cls-2{fill:#ec1c24;}.cls-3{fill:#fff;}</style></defs><title>Weber</title><path class="cls-1" d="M22.21,0C9.34,0,0,9.67,0,23V174.84c0,12.62,10.3,22.51,23.44,22.51H456.3c12,0,22.6-10.45,22.6-22.36V22.23C478.9,9.76,468.84,0,456,0Z" /><path class="cls-2" d="M433.05,141.39a7.42,7.42,0,0,0-1.34.12l-9.51-27c2.29-.87,3.63-1.9,3.63-3,0-1.44-2.25-2.65-5.93-3.54L417,99.79c11.8-5.23,18.6-18.06,18.6-23.64a21.92,21.92,0,0,0,.37-3.39c-.18-.88.94-.7.94-.7,1.51-.75.26-5.09,0-5.09s-1.22.21-1.36-.41c-3-12.69-15-15.83-24.17-16.63a10,10,0,0,0,.35-3,6,6,0,0,0-.06-1H412a2,2,0,0,0,0-3.91,42.47,42.47,0,0,0-7.5-.43,45.53,45.53,0,0,0-7.29.43A2,2,0,0,0,397,46a8,8,0,0,0,0,1,11.62,11.62,0,0,0,.25,2.82c-9.29.26-22.81,2.2-25.57,16.77l-1.17,0c-.69,0-1.56,3.73-.58,5.31.3.49,1,.16,1.71.22.15,1.48.25,1.66.44,3.72.6,6.19,6.61,17.77,18,23.15l-3.26,8.75c-4.22.89-6.83,2.19-6.83,3.75,0,1.2,1.57,2.32,4.23,3.24l-16.24,43.55h3.55l3.32-8.28,49.63.06a8.64,8.64,0,1,0,8.63-8.67Zm-16.74-34.14a89.15,89.15,0,0,0-11.49-.89v-4.42c3.06-.11,6.31-.15,9.2-1.19Zm-.43,35.13,3.79,2-17.81.24Zm-7.73-.65a8.35,8.35,0,0,0,2-2.29l2.86,1.47ZM408.32,46a7.56,7.56,0,0,0,0,1,10.76,10.76,0,0,0,.29,2.94l-8.44-.09a10.89,10.89,0,0,0,.32-2.85,5.87,5.87,0,0,0-.07-1Zm-15.54,54.15a24.33,24.33,0,0,0,9,1.7v4.53a91.43,91.43,0,0,0-11.59.78Zm-5.68,15.42a72.13,72.13,0,0,0,14.69,1.53v9.47a8.6,8.6,0,0,0-7.66,8.5,8.29,8.29,0,0,0,.6,3.12l-18.88,8Zm8.71,24.56a8.61,8.61,0,0,0,4.12,3L380.4,146.4Zm28.93,7.56-41.24-.18,11.2-1.54,28.11.06-.16-.13,2.29,1.18A6.21,6.21,0,0,0,424.74,147.66Zm1.32-2.72-15-7.46a8.51,8.51,0,0,0-6.17-10.73l0-9.7a67.88,67.88,0,0,0,14.34-1.64l9.57,27.12A8.54,8.54,0,0,0,426.06,144.94Z" /><path class="cls-3" d="M329.2,154.16a3.47,3.47,0,1,1,3.48,3.57A3.45,3.45,0,0,1,329.2,154.16Zm3.48,4.28a4.28,4.28,0,1,0-4.34-4.28A4.27,4.27,0,0,0,332.68,158.44Zm-.9-3.94h.86l1.3,2.13h.84l-1.41-2.17a1.28,1.28,0,0,0,1.28-1.36c0-1-.58-1.39-1.74-1.39H331v4.92h.75Zm0-.64v-1.52h1c.51,0,1.07.11,1.07.72s-.57.8-1.2.8Z" /><path class="cls-3" d="M447.69,154.16a3.47,3.47,0,1,1,3.48,3.57A3.45,3.45,0,0,1,447.69,154.16Zm3.48,4.28a4.28,4.28,0,1,0-4.34-4.28A4.27,4.27,0,0,0,451.17,158.44Zm-.91-3.94h.86l1.3,2.13h.84l-1.41-2.17a1.29,1.29,0,0,0,1.29-1.36c0-1-.58-1.39-1.75-1.39h-1.87v4.92h.74Zm0-.64v-1.52h1c.52,0,1.07.11,1.07.72s-.56.8-1.19.8Z" /><path class="cls-3" d="M49.65,58c0-7-6.71-4-6.71-8.24v-4l23.64-.07V147.84a4.82,4.82,0,0,0,5,4.81,4.72,4.72,0,0,0,5-4.81V45.66h13.9V147.85a4.56,4.56,0,0,0,2.25,4,5.75,5.75,0,0,0,5.53,0,4.55,4.55,0,0,0,2.21-4.08V45.66h17.09v95.6c0,12.37-12,19.2-34,19.2-22.24,0-34-6.68-34-19.2Zm242.06,52v36.14c0,5.82-6.51,14.36-20.5,14.36h-2.85c-14,0-20.55-8.54-20.58-14.36V57.87c0-5,6-14.35,20.44-14.35h2.92c14.52,0,20.57,9.34,20.57,14.35V99.53H264.77l0,49.81c0,2.91,2.52,4.2,4.83,4.2s5.09-1.45,5.08-4.2c0,0,0-37.93,0-39.34Zm-27-24h9.92l0-31.75A3.28,3.28,0,0,0,273,51.33a7.07,7.07,0,0,0-6.5.09,3.16,3.16,0,0,0-1.74,2.79Zm-89.24,24c0,1.43,0,36.14,0,36.14,0,5.82-6.54,14.36-20.52,14.36h-2.86c-14,0-20.54-8.54-20.58-14.36V57.87c0-5,6-14.35,20.44-14.35h2.92c14.52,0,20.54,9.34,20.54,14.35,0,0,0,40.29,0,41.66H148.55l0,49.81c0,2.91,2.52,4.2,4.83,4.2s5.08-1.45,5.08-4.2c0,0,0-37.93,0-39.34Zm-27-24h9.91l0-31.75a3.31,3.31,0,0,0-1.65-2.88,7.11,7.11,0,0,0-6.52.09,3.16,3.16,0,0,0-1.74,2.79ZM299,46v4c0,4.26,6.7,1.22,6.7,8.22l.1,100.52h17.06V53.6a3.48,3.48,0,0,1,1.75-2.28,6.51,6.51,0,0,1,6.15,0,3.62,3.62,0,0,1,1.89,3.15v45h17.29V54.74a8.79,8.79,0,0,0-5-8.27c-5.69-3-14.66-4.16-20.88.39l-1.22.83V45.92ZM470.72,22.23V175c0,7.42-6.88,14.17-14.42,14.17H23.44c-8.55,0-15.26-6.29-15.26-14.32V23c0-8.86,5.64-14.82,14-14.82H456C464.25,8.18,470.72,14.35,470.72,22.23Zm-6.55,0c0-4.32-3.55-7.5-8.18-7.5H206.81c0,9.28,0,32.47,0,32.47L208,46c2.28-2.31,10.93-3.46,17.71-.61,5.32,2.24,8.13,7.33,8.14,14.66l.05,86.11c0,6-7.75,14.36-22.25,14.36-15,0-22-8.54-22-14.36l-.05-125.79c0-4.41-2.66-4.84-4.63-5.62H22.21c-5.39,0-7.48,3.64-7.48,8.27V174.84c0,4.31,3.78,7.78,8.71,7.78H456.3c4.17,0,7.87-3.93,7.87-7.63ZM206.87,149.35c0,2.73,2.42,4.12,4.82,4.12s4.84-1.39,4.82-4.12l0-95.57c0-1.93-1.86-3.18-4.64-3.18-2.47,0-5,1.07-5,3.18Z" /></svg>