<svg id="Layer_1" data-name="Layer 1" xmlns="http://www.w3.org/2000/svg" viewBox="0 0 585.9 104.64"><defs><style>.cls-1{fill:#1c3f94;}</style></defs><title>Blanco</title><path class="cls-1" d="M16.1,335.15H63.75c20.9,0,32.46,10.72,32.46,27.16,0,10.88-5.71,18.41-15.46,20.63,13.52,2.79,20.06,10.6,20.06,23.69,0,18.39-12.54,28.15-37.2,28.15H16.1Zm33.58,37.62h4.73c5.86,0,8.92-2.51,8.92-7s-3.06-7-8.92-7H49.68Zm0,37.34h6c7.38,0,11.14-2.93,11.14-7.95s-3.76-7.94-11.14-7.94h-6Z" transform="translate(-16.1 -332.78)" /><path class="cls-1" d="M108.44,335.15h35.81v67.3h34.84v32.33H108.44Z" transform="translate(-16.1 -332.78)" /><path class="cls-1" d="M219.27,335.15h39.85L294,434.78H255.5l-3.21-12.56h-27l-3.07,12.56H183.74Zm26.9,63.39-3.07-11.28c-1.39-5.29-3.48-12.26-4-21.87h-.7c-.56,9.61-2.64,16.58-4,21.87l-3.06,11.28Z" transform="translate(-16.1 -332.78)" /><path class="cls-1" d="M300.62,335.15h35.11l30.93,52.11a99.77,99.77,0,0,1-1.11-15.88V335.15h34.56v99.63H364.72l-30.66-51.7a101.18,101.18,0,0,1,1.11,15.75v35.95H300.62Z" transform="translate(-16.1 -332.78)" /><path class="cls-1" d="M465.31,365.39c-11.57,0-19.51,7.66-19.51,19.78,0,11.43,7.11,19.23,18.82,19.23,7.38,0,14.21-3.35,22.14-9.2l-1.1,37.48a61.53,61.53,0,0,1-23.42,4.73,53.94,53.94,0,0,1-32.32-10.3c-13.38-9.89-20.62-24.52-20.62-41.94,0-30.24,22.43-52.39,53.37-52.39a57.62,57.62,0,0,1,23.41,5v36.93C479.52,368.45,472.84,365.39,465.31,365.39Z" transform="translate(-16.1 -332.78)" /><path class="cls-1" d="M586.81,422.37c-9.75,9.62-23.27,15-38,15a53.72,53.72,0,0,1-38.17-15.19c-9.76-9.6-15.05-22.28-15.05-37.05s5.29-27.59,15.05-37.2c10-9.75,23.27-15.05,38.17-15.05S576.92,338.22,587,348c9.75,9.61,15,22.57,15,37.2S596.7,412.62,586.81,422.37Zm-21.32-37.2c0-11.57-7-18.95-16.72-18.95s-16.85,7.38-16.85,18.95S539,404,548.77,404,565.49,396.74,565.49,385.17Z" transform="translate(-16.1 -332.78)" /></svg>