<svg id="Layer_1" data-name="Layer 1" xmlns="http://www.w3.org/2000/svg" viewBox="0 0 850.39 204.43"><defs><style>.cls-1{fill:#4b4a4a;}</style></defs><title>Oliveri</title><path class="cls-1" d="M556.56,522.89l-.26-1.09c3.21-6,8.37-8.77,14.93-5,5.74,2.91,15.3-3.49,21.31-4.92,21.83-8.22,44.81-13.88,66.91-21.73a12.26,12.26,0,0,1,2.92-.39c6-.05,10.37,5.46,5.09,10.56-5.61,5.43-21.31,10.86-28.57,14.35,0,0-51.71,19.87-56.17,21.87a12.57,12.57,0,0,0-2.3,1.36l-2.18,1.65c-10.24,7.37-19.92-8.69-21.68-16.65" transform="translate(-113.53 -437.23)" /><path class="cls-1" d="M341.05,478c-1.75,23.83-11.54,39.6-23.2,59.29.14-24.72,3.5-46.84,18.69-62.88,1.95-2.66,5-2.19,4.51,3.59m237.59,99.59c-.08,2-4.85,7.27-13.43,8.76-1.57-10.09,3.3-16,8.07-16,4,0,5.57,1.48,5.36,7.22m63.37,21,1.86,7.76a49.11,49.11,0,0,0,4.18,11.45c12.54,16.79,44.57,14.86,61,9.78,9.09-2.83,17.82-7.5,26-12.36,20.88,13.72,47.23,18,73.64,18.06,27,.1,54.56-4.14,77.21-7.44,24.09-1.55,43.3-12.9,68.64-7.46,5.47-1.82,9.78-4.61,9.38-11.41-2.46-6-5.86-10.21-12.94-10.77-12,5.14-25.45,3.61-37.92,6.68-31.71,7.39-65.48,10.29-101.36,12.23-22.25-.19-50.37-.53-65.89-19.28-1.72-5.65,2.93-13.15,1.08-21.19-2.9-5.6-7.65-9.31-14.53-7.49-9.46,6.83-9.33,18.1-8.48,28.34-13.61,17.59-44.94,24.93-58.34,11.29-.71-2.41-2-7.14-.69-10.62a7.6,7.6,0,0,0,.32-1.4c.7-5.28-1-9.24-5.87-10.95-9.19-3.38-8.64-7.5-15.15-13.24-6.7-6.17-14.49-3.2-19.14,3-1.14,16.53-12.82,30.07-25.66,39-8.2,2.83-18.49,1.9-25.2-2.66-2.23-1.54-3-3.24-3.06-4.44a42.81,42.81,0,0,0,25.79-20.3c6.49-17.41-6.1-36-25.44-33.31-17.85,2.5-26.65,15.1-25.8,36.8-9.81-.41-18.6-3.67-27.72-7.34-7.82-3.16-9.22-10.5-20.6-8.37-9,9.47-2.68,15.69,3.19,23.17s5.61,18.64-3.7,23.93c-13.35,3.17-24.52-8.52-32.64-17.19.11-5.16.26-15.19-1.07-19.61-2.65-8.87-8.37-16.48-18.89-13-6.56,8.73-4.05,19.19-.45,28.11-2.94,9.13-7.29,18-15.81,22.55-9.91,2.36-27.16,0-34.29-17.69a99.71,99.71,0,0,0,1.51-15.85A37.81,37.81,0,0,0,393.41,575C389,562.9,370.89,563,370.9,583.75a63.18,63.18,0,0,0,1.91,14.74c-7.2,14.77-22,17.73-32.39,15.75-15.26-7.79-20.19-24.39-22.34-41.48,10.92-15.06,20.12-28.24,29.65-46.57,10.93-20.3,15.16-28.61,16-53.65-2.62-30.84-40.55-22-48.65-5.68-19.33,30.27-22.66,71-19.25,105.4-3.79,7.13-9.51,12.59-15.14,18.23-5.2,4.47-9.46,5.68-12.49,12.63,1.51,2.8,1.95,3.24,5.54,5.41,11.06,3.39,17.63-3.35,24.67-10.1l3.08-2.86c7.28,15.25,18.41,32.76,36.34,37.75,10.39,1.74,23,1.67,32.4-4.21l13.87-8.9c10.08,11.9,23.17,21.45,40.45,19.83,11.4-.5,20.42-8.61,27.7-16.5l4.18-4.67c11.22,11.79,24.29,22.79,43.84,19.17,12-1.55,18.35-8.16,23-18.65,2.21-5.13,1.57-10.73,1-16.09a119.47,119.47,0,0,0,25,4.16c2.89,7.44,8,16.09,15.48,19.54,16.25,7.49,17.16,6.26,32.44,5.45,19.5-3.62,33.83-18.85,44.74-33.82M166,490l-4.13-3.83,4-1.92c6.26-2,13.06-2.52,16.25,4.75.78,6.39-1.88,10.24-6.4,14.22-9.73.88-16.25,9.84-22.26,16.56-6.94,16.36-1.24,36,2.17,52.48l2.07,2c3.75,3.71,6.8,7.66,6.53,13.33-3.57,9.58-22.6,14.25-24.63-1.06a46.64,46.64,0,0,1-5.71-15L133.2,568c-1.16,8.87.26,19.2,1.74,27.92,3.06,11.54,11,20.35,22.44,25,26.16,6.2,47.73-11.67,62.65-31,23.51-33.56,44.38-75.65,25.39-116.31C222.75,445.25,178.3,458.42,166,490m70.39,113.79c-18.41,25-48.4,41.65-80.49,37.13-22.63-6-37.27-28-41-49.62-4.56-28.26,3.1-54,18-75.26,4.46-30.9,22-60.58,52.71-74.22,19.12-7,61.93-10,76.43,21.31,26.33,48.56-.08,101.88-25.67,140.66M745,546.57a15.15,15.15,0,0,0-1.42-12.29c-4.9-6.16-14.33-10.54-20.18-2.47-2.94,7.21-.74,14.38,5.05,19.32,6.15,1.48,13.15,3,16.55-4.56M391.94,535c-3.17,4.54-11,4.55-15,2.9-5.84-2.38-11.39-10.09-7.11-17.54,4.78-8.32,14.69-6,19.81-1.86,3.21,2.61,6.59,10.39,2.32,16.5" transform="translate(-113.53 -437.23)" /><path class="cls-1" d="M943,571.22h2.4c1.29,0,2.55.41,2.55,1.81,0,1.62-1,1.94-2.55,1.94H943ZM941,582h2v-5.48h1.69l3.46,5.48h2.14l-3.52-5.48a3.17,3.17,0,0,0,3.21-3.43c0-2.35-1.41-3.5-4.26-3.5H941Zm-4.52-6.19c0-5.07,3.67-9,8.6-9s8.53,3.93,8.53,9-3.67,9-8.53,9-8.6-3.93-8.6-9m-2,0A10.59,10.59,0,1,0,945,565.26a10.61,10.61,0,0,0-10.59,10.59" transform="translate(-113.53 -437.23)" /></svg>