<svg width="23" height="23" viewBox="0 0 23 23" fill="none" xmlns="http://www.w3.org/2000/svg">
<path fill-rule="evenodd" clip-rule="evenodd" d="M11.5 23C17.8513 23 23 17.8513 23 11.5C23 5.14871 17.8513 0 11.5 0C5.14868 0 0 5.14871 0 11.5C0 17.8513 5.14868 23 11.5 23ZM8.07788 5.78558C8.07788 5.78558 7.9978 5.70551 7.83716 5.78561C7.67651 5.86569 5.91064 7.94836 5.83032 8.10858C5.75 8.26877 5.75 8.50909 5.75 8.50909C5.75 8.50909 5.69727 11.1636 8.625 14.3677C11.5527 17.5718 14.4197 17.2403 14.4197 17.2403C14.4197 17.2403 14.5 17.2403 14.9014 17.1602C15.3027 17.08 17.0222 15.6845 17.1489 15.5581C17.2756 15.4317 17.2917 15.3713 17.1489 15.1576C17.0061 14.9438 14.9014 13.6357 14.7407 13.5555C14.5801 13.4754 14.4197 13.4754 14.3394 13.5555C14.3127 13.5822 14.2415 13.6443 14.1465 13.7272C13.9563 13.8934 13.6704 14.1428 13.4563 14.3566C13.1353 14.677 12.6536 14.4367 12.6536 14.4367C12.6536 14.4367 11.2891 14.0362 10.2454 12.9147C9.2019 11.7933 8.55957 10.031 8.55957 10.031C8.55957 10.031 8.52197 9.74817 8.63989 9.63052C8.75781 9.51288 9.68335 8.74939 9.68335 8.74939C9.68335 8.74939 9.76367 8.74939 9.76367 8.50909C9.76367 8.26877 8.07788 5.78558 8.07788 5.78558Z" fill="#595565"/>
</svg>
