<?xml version="1.0" encoding="utf-8"?>
<svg width="32" height="30" viewBox="0 0 32 30" xmlns="http://www.w3.org/2000/svg">
    <path d="M23.9 30a2.717 2.717 0 0 0 2.706-2.727 2.717 2.717 0 0 0-2.706-2.728 2.717 2.717 0 0 0-2.706 2.728A2.717 2.717 0 0 0 23.9 30zm-10.822 0a2.717 2.717 0 0 0 2.705-2.727 2.717 2.717 0 0 0-2.705-2.728 2.717 2.717 0 0 0-2.706 2.728A2.717 2.717 0 0 0 13.078 30zM31.664 8.094c-.222-.353-.172-.5-1.065-.653-4.93-.844-21.088-3.62-22.106-3.913-.602-.172-.683-.368-1.127-1.368C6.405 0 4.486 0 4.486 0H2.003s-1.1 0-1.1 1.373S2.04 2.645 2.04 2.645l1.477.092s.862.163 1.556.791c.694.63.804 2.003.804 2.003l3.36 16.97H28.41l3.254-13.367s.222-.687 0-1.04z" fill="#575563" fill-rule="evenodd" />
</svg>
